<svg preserveAspectRatio="none" width="100%" height="100%" overflow="visible" style="display: block;" viewBox="0 0 6 8.625" fill="none" xmlns="http://www.w3.org/2000/svg">
<path id="Vector" d="M6 2.625C6 3.96141 4.85297 5.06766 3.375 5.22938V5.625C3.375 5.72446 3.33549 5.81984 3.26517 5.89017C3.19484 5.96049 3.09946 6 3 6C2.90054 6 2.80516 5.96049 2.73484 5.89017C2.66451 5.81984 2.625 5.72446 2.625 5.625V4.875C2.625 4.77554 2.66451 4.68016 2.73484 4.60984C2.80516 4.53951 2.90054 4.5 3 4.5C4.24078 4.5 5.25 3.65906 5.25 2.625C5.25 1.59094 4.24078 0.75 3 0.75C1.75922 0.75 0.75 1.59094 0.75 2.625C0.75 2.72446 0.710491 2.81984 0.640165 2.89017C0.569839 2.96049 0.474456 3 0.375 3C0.275544 3 0.180161 2.96049 0.109835 2.89017C0.0395089 2.81984 0 2.72446 0 2.625C0 1.1775 1.34578 0 3 0C4.65422 0 6 1.1775 6 2.625ZM3 7.125C2.85166 7.125 2.70666 7.16899 2.58332 7.2514C2.45999 7.33381 2.36386 7.45094 2.30709 7.58799C2.25032 7.72503 2.23547 7.87583 2.26441 8.02132C2.29335 8.1668 2.36478 8.30044 2.46967 8.40533C2.57456 8.51022 2.7082 8.58165 2.85368 8.61059C2.99917 8.63953 3.14997 8.62468 3.28701 8.56791C3.42406 8.51115 3.54119 8.41502 3.6236 8.29168C3.70601 8.16834 3.75 8.02334 3.75 7.875C3.75 7.67609 3.67098 7.48532 3.53033 7.34467C3.38968 7.20402 3.19891 7.125 3 7.125Z" fill="var(--fill-0, #222222)" fill-opacity="0.6"/>
</svg>
