<svg preserveAspectRatio="none" width="100%" height="100%" overflow="visible" style="display: block;" viewBox="0 0 14 14" fill="none" xmlns="http://www.w3.org/2000/svg">
<path id="Vector (Stroke)" d="M10 9C10.2152 9 10.4066 9.13763 10.4746 9.3418L10.737 10.1309C10.7861 10.278 10.8688 10.4118 10.9785 10.5215C11.0882 10.6312 11.222 10.7139 11.3691 10.763L12.1582 11.0254C12.3624 11.0934 12.5 11.2848 12.5 11.5C12.5 11.7152 12.3624 11.9066 12.1582 11.9746L11.3691 12.237C11.222 12.2861 11.0882 12.3688 10.9785 12.4785C10.8688 12.5882 10.7861 12.722 10.737 12.8691L10.4746 13.6582C10.4066 13.8624 10.2152 14 10 14C9.78478 14 9.59345 13.8624 9.52539 13.6582L9.26302 12.8691C9.21392 12.722 9.13119 12.5882 9.02148 12.4785C8.91178 12.3688 8.77803 12.2861 8.63086 12.237L7.8418 11.9746C7.63763 11.9066 7.5 11.7152 7.5 11.5C7.5 11.2848 7.63763 11.0934 7.8418 11.0254L8.63086 10.763C8.77803 10.7139 8.91178 10.6312 9.02148 10.5215C9.13119 10.4118 9.21392 10.278 9.26302 10.1309L9.52539 9.3418C9.59345 9.13763 9.78478 9 10 9ZM10 10.8893C9.92215 11.0114 9.83159 11.1254 9.72852 11.2285C9.62544 11.3316 9.5114 11.4221 9.38932 11.5C9.5114 11.5779 9.62544 11.6684 9.72852 11.7715C9.83146 11.8744 9.92221 11.9881 10 12.11C10.0778 11.9881 10.1685 11.8744 10.2715 11.7715C10.3744 11.6685 10.4881 11.5778 10.61 11.5C10.4881 11.4222 10.3744 11.3315 10.2715 11.2285C10.1684 11.1254 10.0779 11.0114 10 10.8893ZM5 2C5.22319 2.00003 5.41912 2.14805 5.48047 2.36263L6.02279 4.25977C6.13952 4.66818 6.3585 5.04014 6.65885 5.34049C6.95921 5.64085 7.33118 5.85983 7.73958 5.97656L9.63737 6.51953C9.85198 6.58089 10 6.7768 10 7C9.99997 7.22319 9.85195 7.41912 9.63737 7.48047L7.74023 8.02279C7.33182 8.13952 6.95986 8.3585 6.65951 8.65885C6.35915 8.95921 6.14017 9.33118 6.02344 9.73958C6.02285 9.74162 6.02144 9.74341 6.02083 9.74544L5.48047 11.6374C5.41911 11.852 5.22321 12 5 12C4.77679 12 4.58089 11.852 4.51953 11.6374L3.97721 9.74023C3.86048 9.33182 3.6415 8.95986 3.34115 8.65951C3.04079 8.35915 2.66882 8.14017 2.26042 8.02344L0.36263 7.48047C0.148022 7.41911 -2.63071e-07 7.2232 0 7C2.59012e-05 6.77681 0.148048 6.58088 0.36263 6.51953L2.25977 5.97721C2.66818 5.86048 3.04014 5.6415 3.34049 5.34115C3.64085 5.04079 3.85983 4.66882 3.97656 4.26042L4.51953 2.36263L4.54818 2.28516C4.6299 2.11312 4.80473 2 5 2ZM4.93815 4.53516C4.77472 5.10693 4.46802 5.62768 4.04753 6.04818C3.62703 6.46868 3.10628 6.77537 2.53451 6.9388L2.31901 7L2.53516 7.06185C3.10693 7.22528 3.62768 7.53198 4.04818 7.95247C4.46868 8.37297 4.77537 8.89372 4.9388 9.4655L5 9.67969L5.0612 9.4655L5.0651 9.45378C5.2293 8.88626 5.53464 8.36966 5.95247 7.95182C6.37297 7.53132 6.89372 7.22463 7.4655 7.0612L7.68034 6.99935L7.46484 6.93815C6.89307 6.77472 6.37232 6.46802 5.95182 6.04753C5.53132 5.62703 5.22463 5.10628 5.0612 4.53451L4.99935 4.31901L4.93815 4.53516ZM11 0C11.2294 0 11.4293 0.156377 11.485 0.378906L11.6576 1.06836V1.06901C11.7345 1.3767 11.8936 1.65789 12.1178 1.88216C12.3421 2.10643 12.6233 2.26552 12.931 2.34245H12.9316L13.6211 2.51497C13.8436 2.57066 14 2.77061 14 3C14 3.22939 13.8436 3.42934 13.6211 3.48503L12.9316 3.65755H12.931C12.6233 3.73448 12.3421 3.89357 12.1178 4.11784C11.8936 4.34211 11.7345 4.6233 11.6576 4.93099V4.93164L11.485 5.62109C11.4293 5.84362 11.2294 6 11 6C10.7706 6 10.5707 5.84362 10.515 5.62109L10.3424 4.93164V4.93099C10.2656 4.62343 10.1062 4.34273 9.88216 4.11849C9.65795 3.89418 9.37667 3.73455 9.06901 3.65755V3.6569L8.37891 3.48503C8.15632 3.42938 8 3.22943 8 3C8 2.77057 8.15632 2.57062 8.37891 2.51497L9.06901 2.34245L9.18359 2.3099C9.44649 2.22478 9.68601 2.07774 9.88216 1.88151C10.1062 1.65727 10.2656 1.37657 10.3424 1.06901V1.06836L10.515 0.378906L10.5423 0.298177C10.6211 0.119343 10.7994 0 11 0ZM11 2.06055C10.8852 2.25159 10.7482 2.42946 10.5892 2.58854C10.43 2.74783 10.2518 2.88499 10.0605 3C10.2518 3.11501 10.43 3.25217 10.5892 3.41146C10.7481 3.57041 10.8852 3.74794 11 3.9388C11.1149 3.74782 11.2518 3.56983 11.4108 3.41081C11.5698 3.25179 11.7478 3.11487 11.9388 3C11.7478 2.88513 11.5698 2.74821 11.4108 2.58919C11.2517 2.43004 11.1149 2.25171 11 2.06055Z" fill="var(--fill-0, #4B0EA3)"/>
</svg>
