<svg preserveAspectRatio="none" width="100%" height="100%" overflow="visible" style="display: block;" viewBox="0 0 14 18" fill="none" xmlns="http://www.w3.org/2000/svg">
<path id="Vector" fill-rule="evenodd" clip-rule="evenodd" d="M7 0V4.5486C7 4.9302 7 5.3019 7.04025 5.6079C7.08487 5.9526 7.19513 6.3459 7.51275 6.6726C7.83038 6.9993 8.21275 7.1127 8.54875 7.1586C8.84625 7.2 9.20675 7.2 9.57775 7.2H14V12.6C14 15.1452 14 16.4187 13.2309 17.2089C12.4626 18 11.2245 18 8.75 18H5.25C2.7755 18 1.53738 18 0.769125 17.2089C1.56462e-07 16.4187 0 15.1452 0 12.6V5.4C0 2.8548 1.56462e-07 1.5813 0.769125 0.7911C1.53738 -5.36442e-08 2.7755 0 5.25 0H7ZM8.75 0.0045001V4.5C8.75 4.95 8.75175 5.1966 8.7745 5.3676V5.3739L8.7815 5.3748C8.94775 5.3982 9.1875 5.4 9.625 5.4H13.9956C13.9869 5.0292 13.958 4.7844 13.867 4.5567C13.734 4.2264 13.4811 3.9654 12.9745 3.4452L10.6505 1.0548C10.1448 0.5346 9.89188 0.2736 9.56988 0.1368C9.3485 0.0423 9.1105 0.0135001 8.75 0.0045001Z" fill="var(--fill-0, #22222D)"/>
</svg>
