<svg preserveAspectRatio="none" width="100%" height="100%" overflow="visible" style="display: block;" viewBox="0 0 9.33333 12" fill="none" xmlns="http://www.w3.org/2000/svg">
<path id="Vector" fill-rule="evenodd" clip-rule="evenodd" d="M4.66667 0V3.0324C4.66667 3.2868 4.66667 3.5346 4.6935 3.7386C4.72325 3.9684 4.79675 4.2306 5.0085 4.4484C5.22025 4.6662 5.47517 4.7418 5.69917 4.7724C5.8975 4.8 6.13783 4.8 6.38517 4.8H9.33333V8.4C9.33333 10.0968 9.33333 10.9458 8.82058 11.4726C8.30842 12 7.483 12 5.83333 12H3.5C1.85033 12 1.02492 12 0.51275 11.4726C1.04308e-07 10.9458 0 10.0968 0 8.4V3.6C0 1.9032 1.04308e-07 1.0542 0.51275 0.5274C1.02492 -3.57628e-08 1.85033 0 3.5 0H4.66667ZM5.83333 0.00300007V3C5.83333 3.3 5.8345 3.4644 5.84967 3.5784V3.5826L5.85433 3.5832C5.96517 3.5988 6.125 3.6 6.41667 3.6H9.33042C9.32458 3.3528 9.30533 3.1896 9.24467 3.0378C9.156 2.8176 8.98742 2.6436 8.64967 2.2968L7.10033 0.7032C6.76317 0.3564 6.59458 0.1824 6.37992 0.0912C6.23233 0.0282 6.07367 0.00900007 5.83333 0.00300007Z" fill="var(--fill-0, white)" fill-opacity="0.6"/>
</svg>
