<svg preserveAspectRatio="none" width="100%" height="100%" overflow="visible" style="display: block;" viewBox="0 0 77.1292 25.9756" fill="none" xmlns="http://www.w3.org/2000/svg">
<path id="Subtract" d="M76.3008 0.00587262C77.2373 0.00583561 77.125 -0.124666 77.125 0.846693V25.1377C77.125 25.9729 77.1242 25.9756 76.2588 25.9756H0V24.8506C14.8852 24.8411 34.1568 24.8414 48.7236 24.8516C49.2052 24.8516 49.6874 24.8359 50.1689 24.8516C50.5372 24.8672 50.6952 24.7179 50.6768 24.3565V24.0293C50.6768 16.6521 50.6766 9.27434 50.6924 1.89454C50.6923 1.24026 50.5291 1.0542 49.8535 1.05665C34.9091 1.07525 15.2484 1.07502 0 1.05763V0.00782574L39.8906 0.00587262H76.3008ZM63.249 5.38185C59.2431 5.54441 56.2266 9.48676 57.3135 13.3193C58.5219 17.6101 63.2415 19.4287 67.0527 17.0527C67.4499 16.8069 67.658 16.8982 67.9395 17.1836C69.0579 18.3177 70.2164 19.4156 71.3164 20.5654C71.7267 20.9893 71.9803 20.8116 72.2539 20.5C72.5276 20.1886 72.9791 19.9839 72.4326 19.4736C71.2851 18.3997 70.2056 17.2541 69.0713 16.167C68.7188 15.8266 68.627 15.5906 68.9346 15.1377C69.6239 14.1267 69.9453 12.9753 69.9453 11.2442C69.9738 8.23704 66.9861 5.23027 63.249 5.38185ZM61.6768 7.24806C62.5668 6.88194 63.5467 6.78622 64.4912 6.97365C65.4357 7.16121 66.3036 7.6238 66.9844 8.30177C67.6651 8.97977 68.1295 9.84413 68.3174 10.7842C68.505 11.7241 68.4083 12.6995 68.04 13.585C67.6716 14.4703 67.0473 15.228 66.2471 15.7608C65.4465 16.2935 64.5041 16.5785 63.541 16.5791C62.9 16.5822 62.2637 16.4585 61.6709 16.2158C61.0781 15.973 60.5391 15.6153 60.0859 15.1641C59.6328 14.7128 59.274 14.176 59.0303 13.586C58.7867 12.9959 58.6626 12.3626 58.666 11.7246C58.6671 10.7661 58.9545 9.8288 59.4902 9.03224C60.0261 8.2358 60.7868 7.6143 61.6768 7.24806Z" fill="var(--fill-0, white)"/>
</svg>
